<svg width="42" height="29" viewBox="0 0 42 29" fill="none" xmlns="http://www.w3.org/2000/svg">
<path d="M24.4667 4.63235L25.2681 1C7.99064 1 -5.51068 14.1966 4.31781 23.9438C18.983 35.6248 41.4333 18.8481 40.9936 14.0137L36.6484 13.9032M24.4667 4.63235C11.0167 4.63235 5.63075 11.9231 4.83511 16.2088C4.03946 20.4944 9.10275 23.787 13.3704 24.571C17.638 25.3549 30.9841 22.5066 36.6484 13.9032M24.4667 4.63235L23.6644 7.55912M36.6484 13.9032H32.8981M23.6644 7.55912L22.5005 13.5433C22.5005 13.5433 28.6302 13.8986 32.5618 13.9032C32.6931 13.9033 32.8981 13.9032 32.8981 13.9032M23.6644 7.55912C16.0654 7.01035 11.4047 11.1653 9.98214 13.1252C8.55959 15.0851 6.90427 18.2471 10.3442 20.3899C13.7842 22.5327 19.4227 21.3829 21.2849 20.808C23.1472 20.2331 27.8017 18.7275 32.8981 13.9032" stroke="#12136C"/>
<path d="M22.778 11.0669C18.5916 10.5892 12.3458 12.7192 12.0088 15.8959C11.6719 19.0727 21.0295 18.9072 28 13.6375" stroke="#12136C"/>
</svg>
